# File created by Blade
# Date/Time:  Wed Jan 21 17:47:32 2015
# Frame Rate: 120.000 fps
#------------------------------------------------------
:FULLY-SPECIFIED
:DEGREES
1127
root 21.468739 27.169114 -17.940759 -154.561458 44.474469 -209.389602
Spine 45.167466 17.462324 49.169368
Head -14.951185 46.488335 -33.436751
LeftShoulder -21.871345 -22.039094 14.561122
LeftArm -32.799083 11.347577 -24.156985
LeftForeArm -0.830949 -0.000000 0.120346
LeftHand -3.362356 -0.000000 5.263376
LeftHandThumb1 -26.253704 0.000000 33.147579
RightShoulder 14.661085 10.703417 -36.957287
RightArm 4.731704 31.218682 29.681178
RightForeArm -5.543555 -0.000000 6.046586
RightHand -10.917015 -0.000000 -12.996941
RightHandThumb1 -24.326973 -0.000000 -32.862282
LeftUpLeg -18.186496 18.955509 -4.200201
LeftLeg -1.748143 -0.000000 0.000000
LeftFoot -34.391191 4.809289 -26.831346
LeftToeBase 31.106687 -0.000000 -0.000000
RightUpLeg -113.576166 -25.052809 1.043593
RightLeg 79.272830 -0.000000 -0.000000
RightFoot -35.515798 -23.438104 17.978935
RightToeBase 24.614479 -0.000000 -0.000000
1128
root 21.488513 27.147637 -17.946668 -154.686950 44.344723 -209.542769
Spine 45.206836 17.625301 49.451773
Head -14.558850 46.653527 -33.287633
LeftShoulder -22.006157 -22.105944 15.052831
LeftArm -33.313213 11.467737 -23.837909
LeftForeArm -0.967300 -0.000000 0.152150
LeftHand -3.608158 -0.000000 5.271622
LeftHandThumb1 -26.253704 0.000000 33.147579
RightShoulder 14.449685 10.688576 -37.316707
RightArm 4.203325 31.397689 29.947255
RightForeArm -5.801939 -0.000000 6.396644
RightHand -11.100256 -0.000000 -13.210921
RightHandThumb1 -24.326973 -0.000000 -32.862282
LeftUpLeg -18.186763 18.983793 -4.265403
LeftLeg -1.688234 -0.000000 0.000000
LeftFoot -34.360974 4.667624 -26.847123
LeftToeBase 30.980906 -0.000000 -0.000000
RightUpLeg -113.631176 -25.212615 0.985597
RightLeg 79.477408 -0.000000 -0.000000
RightFoot -35.661263 -23.379416 18.053229
RightToeBase 24.595708 -0.000000 -0.000000
1129
root 21.508336 27.126139 -17.952360 -154.784118 44.229382 -209.675992
Spine 45.204516 17.810545 49.761882
Head -13.914195 46.789180 -32.974822
LeftShoulder -21.999688 -22.176143 15.413535
LeftArm -33.863853 11.691449 -23.499543
LeftForeArm -1.191712 -0.000000 0.122967
LeftHand -3.792691 0.000000 5.495283
LeftHandThumb1 -26.253704 0.000000 33.147579
RightShoulder 14.307657 10.623149 -37.725723
RightArm 3.655295 31.578638 30.296092
RightForeArm -5.842977 -0.000000 6.731899
RightHand -11.155221 -0.000000 -13.780214
RightHandThumb1 -24.326973 -0.000000 -32.862282
LeftUpLeg -18.218174 19.027581 -4.326855
LeftLeg -1.589145 -0.000000 0.000000
LeftFoot -34.356430 4.447701 -26.809219
LeftToeBase 30.960753 -0.000000 -0.000000
RightUpLeg -113.698944 -25.359034 0.932628
RightLeg 79.675145 -0.000000 -0.000000
RightFoot -35.832981 -23.305943 18.203160
RightToeBase 24.660412 -0.000000 -0.000000
1130
root 21.527579 27.104186 -17.956482 -154.851281 44.114527 -209.777570
Spine 45.191073 17.968467 50.034083
Head -13.337232 46.974321 -32.671603
LeftShoulder -22.057441 -22.151356 15.753797
LeftArm -34.334328 11.820458 -23.109809
LeftForeArm -1.345376 0.000000 0.121783
LeftHand -3.977098 -0.000000 5.795203
LeftHandThumb1 -26.253704 0.000000 33.147579
RightShoulder 14.209460 10.645472 -38.097522
RightArm 3.073444 31.703556 30.622432
RightForeArm -5.894128 0.000000 7.080603
RightHand -11.241154 -0.000000 -14.293237
RightHandThumb1 -24.326973 -0.000000 -32.862282
LeftUpLeg -18.257757 19.060644 -4.362729
LeftLeg -1.492851 -0.000000 0.000000
LeftFoot -34.380233 4.278648 -26.758884
LeftToeBase 30.946267 -0.000000 -0.000000
RightUpLeg -113.736680 -25.470513 0.844923
RightLeg 79.868217 -0.000000 -0.000000
RightFoot -36.012470 -23.288412 18.288293
RightToeBase 24.750483 -0.000000 -0.000000
1131
root 21.546487 27.080870 -17.961803 -154.957802 43.986535 -209.898260
Spine 45.204965 18.093495 50.280877
Head -12.867991 47.149070 -32.408934
LeftShoulder -22.114541 -22.196023 16.087025
LeftArm -34.817376 12.052616 -22.728925
LeftForeArm -1.689555 0.000000 0.118123
LeftHand -4.209701 -0.000000 5.958799
LeftHandThumb1 -26.253704 0.000000 33.147579
RightShoulder 14.038286 10.624077 -38.473899
RightArm 2.586099 31.835763 30.978153
RightForeArm -6.013096 -0.000000 7.401221
RightHand -11.233440 0.000000 -14.696694
RightHandThumb1 -24.326973 -0.000000 -32.862282
LeftUpLeg -18.289212 19.142261 -4.423175
LeftLeg -1.377297 -0.000000 0.000000
LeftFoot -34.393732 4.090662 -26.703095
LeftToeBase 30.791040 -0.000000 -0.000000
RightUpLeg -113.774930 -25.626886 0.791319
RightLeg 80.068804 -0.000000 -0.000000
RightFoot -36.182762 -23.195433 18.372537
RightToeBase 24.821946 -0.000000 -0.000000
1132
root 21.565838 27.059003 -17.966540 -155.012271 43.887237 -209.976955
Spine 45.222669 18.241999 50.515714
Head -12.427133 47.324117 -32.135775
LeftShoulder -22.228151 -22.227909 16.403557
LeftArm -35.209893 12.342040 -22.397008
LeftForeArm -1.765788 -0.000000 0.048414
LeftHand -4.578583 -0.000000 6.315023
LeftHandThumb1 -26.253704 0.000000 33.147579
RightShoulder 13.911852 10.640454 -38.791653
RightArm 2.040094 31.765570 31.250773
RightForeArm -5.979223 -0.000000 7.740420
RightHand -11.222874 -0.000000 -15.101188
RightHandThumb1 -24.326973 -0.000000 -32.862282
LeftUpLeg -18.344926 19.226557 -4.465564
LeftLeg -1.251895 -0.000000 0.000000
LeftFoot -34.438924 3.924070 -26.638908
LeftToeBase 30.762971 -0.000000 -0.000000
RightUpLeg -113.812130 -25.733660 0.721823
RightLeg 80.258374 -0.000000 -0.000000
RightFoot -36.348858 -23.144739 18.471946
RightToeBase 24.907904 -0.000000 -0.000000
1133
root 21.588149 27.036847 -17.970000 -155.080962 43.769944 -210.053456
Spine 45.248690 18.351823 50.752104
Head -12.009377 47.476663 -31.913413
LeftShoulder -22.310033 -22.216517 16.622567
LeftArm -35.544726 12.614345 -22.021112
LeftForeArm -1.941913 -0.000000 -0.077085
LeftHand -4.830440 -0.000000 6.633266
LeftHandThumb1 -26.253704 0.000000 33.147579
RightShoulder 13.856039 10.639858 -39.106608
RightArm 1.362618 31.724521 31.453003
RightForeArm -5.999103 -0.000000 8.218908
RightHand -11.318676 -0.000000 -15.431225
RightHandThumb1 -24.326973 -0.000000 -32.862282
LeftUpLeg -18.378763 19.276534 -4.484930
LeftLeg -1.131095 -0.000000 0.000000
LeftFoot -34.488055 3.767201 -26.572275
LeftToeBase 30.685843 -0.000000 -0.000000
RightUpLeg -113.834630 -25.859383 0.667963
RightLeg 80.450332 -0.000000 -0.000000
RightFoot -36.534209 -23.065858 18.596408
RightToeBase 25.044098 -0.000000 -0.000000
1134
root 21.607997 27.014178 -17.975904 -155.197522 43.669962 -210.170173
Spine 45.312328 18.451260 50.934711
Head -11.693419 47.638151 -31.712430
LeftShoulder -22.425501 -22.149075 16.845269
LeftArm -35.794551 12.880863 -21.703700
LeftForeArm -2.301971 -0.000000 -0.247673
LeftHand -5.239638 0.000000 6.908028
LeftHandThumb1 -26.253704 0.000000 33.147579
RightShoulder 13.712788 10.467240 -39.426194
RightArm 0.927790 31.750463 31.724582
RightForeArm -5.911129 -0.000000 8.572771
RightHand -11.183865 -0.000000 -15.793314
RightHandThumb1 -24.326973 -0.000000 -32.862282
LeftUpLeg -18.359036 19.276238 -4.516540
LeftLeg -1.052620 -0.000000 0.000000
LeftFoot -34.557358 3.710140 -26.541855
LeftToeBase 30.528593 -0.000000 -0.000000
RightUpLeg -113.881276 -25.997963 0.609508
RightLeg 80.683583 -0.000000 -0.000000
RightFoot -36.714819 -22.860718 18.839347
RightToeBase 25.067274 -0.000000 -0.000000
1135
root 21.628237 26.993639 -17.983592 -155.297634 43.571531 -210.271104
Spine 45.377731 18.550713 51.139173
Head -11.388289 47.793316 -31.542764
LeftShoulder -22.533831 -22.105187 17.052376
LeftArm -36.032676 13.142913 -21.373628
LeftForeArm -2.644210 -0.000000 -0.410247
LeftHand -5.504813 -0.000000 7.096412
LeftHandThumb1 -26.253704 0.000000 33.147579
RightShoulder 13.587840 10.389119 -39.746807
RightArm 0.383509 31.786001 31.948930
RightForeArm -5.963660 -0.000000 9.005952
RightHand -11.256912 -0.000000 -15.927943
RightHandThumb1 -24.326973 -0.000000 -32.862282
LeftUpLeg -18.349782 19.282724 -4.546001
LeftLeg -0.962643 -0.000000 0.000000
LeftFoot -34.607726 3.626765 -26.519372
LeftToeBase 30.389478 -0.000000 -0.000000
RightUpLeg -113.919459 -26.121917 0.592419
RightLeg 80.866429 -0.000000 -0.000000
RightFoot -36.909465 -22.810209 18.943000
RightToeBase 25.249316 -0.000000 -0.000000
1136
root 21.647956 26.974197 -17.990543 -155.399128 43.492386 -210.382379
Spine 45.462140 18.665098 51.303481
Head -11.183417 47.910740 -31.423760
LeftShoulder -22.662005 -22.075357 17.299907
LeftArm -36.252303 13.337786 -21.051606
LeftForeArm -3.141448 0.000000 -0.587482
LeftHand -5.800164 -0.000000 7.540362
LeftHandThumb1 -26.253704 0.000000 33.147579
RightShoulder 13.452385 10.211169 -40.063732
RightArm -0.075473 31.871219 32.189749
RightForeArm -6.085068 -0.000000 9.370154
RightHand -11.169660 -0.000000 -16.044581
RightHandThumb1 -24.326973 -0.000000 -32.862282
LeftUpLeg -18.338039 19.270048 -4.584336
LeftLeg -0.881955 -0.000000 0.000000
LeftFoot -34.675769 3.564685 -26.503932
LeftToeBase 30.235627 -0.000000 -0.000000
RightUpLeg -113.962836 -26.233045 0.549006
RightLeg 81.054019 -0.000000 -0.000000
RightFoot -37.077413 -22.710822 19.122854
RightToeBase 25.304156 -0.000000 -0.000000
1137
root 21.668857 26.955389 -17.997459 -155.504217 43.393692 -210.482789
Spine 45.550607 18.746155 51.471715
Head -11.008053 48.098264 -31.336254
LeftShoulder -22.818185 -22.042470 17.545440
LeftArm -36.463326 13.486055 -20.701946
LeftForeArm -3.563936 -0.000000 -0.648630
LeftHand -6.123299 -0.000000 7.804830
LeftHandThumb1 -26.253704 0.000000 33.147579
RightShoulder 13.279812 10.046530 -40.352362
RightArm -0.463782 31.860935 32.427837
RightForeArm -6.050648 -0.000000 9.729740
RightHand -11.081023 -0.000000 -16.185274
RightHandThumb1 -24.326973 -0.000000 -32.862282
LeftUpLeg -18.300201 19.216771 -4.592970
LeftLeg -0.827659 -0.000000 0.000000
LeftFoot -34.739031 3.571144 -26.513149
LeftToeBase 30.183754 -0.000000 -0.000000
RightUpLeg -113.999910 -26.372496 0.515654
RightLeg 81.274117 -0.000000 -0.000000
RightFoot -37.247798 -22.457376 19.356664
RightToeBase 25.316108 -0.000000 -0.000000
1138
root 21.690317 26.938517 -18.007702 -155.614770 43.302016 -210.575636
Spine 45.646875 18.799079 51.635908
Head -10.871768 48.288921 -31.307093
LeftShoulder -22.959595 -22.020536 17.796573
LeftArm -36.740255 13.688923 -20.418107
LeftForeArm -4.157836 -0.000000 -0.679534
LeftHand -6.549276 -0.000000 7.961801
LeftHandThumb1 -26.253704 0.000000 33.147579
RightShoulder 13.105183 9.850152 -40.642163
RightArm -0.752799 31.948637 32.710615
RightForeArm -6.047163 0.000000 10.027512
RightHand -10.973031 -0.000000 -16.470401
RightHandThumb1 -24.326973 -0.000000 -32.862282
LeftUpLeg -18.224927 19.149671 -4.587462
LeftLeg -0.802404 -0.000000 0.000000
LeftFoot -34.770558 3.560769 -26.533015
LeftToeBase 30.080763 -0.000000 -0.000000
RightUpLeg -113.990775 -26.498605 0.474337
RightLeg 81.442510 -0.000000 -0.000000
RightFoot -37.476503 -22.385311 19.498682
RightToeBase 25.593763 -0.000000 -0.000000
1139
root 21.711285 26.922803 -18.013074 -155.673526 43.219803 -210.656051
Spine 45.753480 18.950813 51.829796
Head -10.756439 48.412503 -31.275799
LeftShoulder -23.079454 -21.935750 18.026830
LeftArm -36.870059 13.794066 -20.154391
LeftForeArm -4.840269 -0.000000 -0.757710
LeftHand -6.837774 -0.000000 8.148751
LeftHandThumb1 -26.253704 0.000000 33.147579
RightShoulder 12.889248 9.713105 -40.914347
RightArm -1.110029 31.886940 32.960781
RightForeArm -5.894533 -0.000000 10.288052
RightHand -10.861018 0.000000 -16.737109
RightHandThumb1 -24.326973 -0.000000 -32.862282
LeftUpLeg -18.209338 19.126495 -4.604784
LeftLeg -0.779250 -0.000000 0.000000
LeftFoot -34.787758 3.552992 -26.553641
LeftToeBase 30.063836 -0.000000 -0.000000
RightUpLeg -114.018029 -26.604307 0.407598
RightLeg 81.634312 -0.000000 -0.000000
RightFoot -37.703277 -22.113179 19.832228
RightToeBase 25.830183 -0.000000 -0.000000
